<?xml version="1.0" encoding="UTF-8" standalone="no"?>
<svg width="16px" height="15px" viewBox="0 0 16 15" version="1.1" xmlns="http://www.w3.org/2000/svg" xmlns:xlink="http://www.w3.org/1999/xlink" xmlns:sketch="http://www.bohemiancoding.com/sketch/ns">
    <title>quotes-close</title>
    <description>Created with Sketch (http://www.bohemiancoding.com/sketch)</description>
    <defs></defs>
    <g id="Page 1" stroke="none" stroke-width="1" fill="none" fill-rule="evenodd" sketch:type="MSPage">
        <g id="quotes-close" sketch:type="MSArtboardGroup" fill="#4E9DDA">
            <path d="M3.28515625,5.68359375 C3.01171738,6.5234417 2.93359375,7.32421465 2.93359375,8.14453125 C2.93359375,8.24218799 2.92382808,8.53771938 2.93359375,8.6060791 C2.94335942,8.67443882 2.9140624,8.75939824 2.93359375,8.99377441 L5.99743652,8.99377441 L5.99743652,15 L1.38777878e-17,15 L1.38777878e-17,9.375 C1.38777878e-17,6.48436055 0.462884863,4.25782031 1.61523438,2.6953125 C2.76758389,1.13280469 4.1419585,0.234376172 5.99743652,0 L5.99743652,2.75390625 C4.64977354,3.00781377 3.83203398,3.9843665 3.28515625,5.68359375 Z M13.6588785,4.49136276 C13.1261656,5.50864232 12.9439251,6.65889355 12.9439251,7.98327637 C12.9439251,8.09844009 12.9345793,8.25629624 12.9439251,8.37145996 C12.953271,8.48662368 12.9065419,8.87260033 12.9439252,9.00695801 L16,9.00695801 L16,15 L10,15 L10,9.21305182 C10,6.92897131 10.467285,4.88964429 11.4018692,3.0950096 C12.3364533,1.3003749 13.8691482,0.268715355 16,0 L16,2.70633397 C14.9719575,2.87907956 14.1915914,3.47408321 13.6588785,4.49136276 Z M13.6588785,4.49136276" id="&quot;" sketch:type="MSShapeGroup" transform="translate(8.000000, 7.500000) scale(-1, -1) translate(-8.000000, -7.500000) "></path>
        </g>
    </g>
</svg>