<?xml version="1.0" encoding="UTF-8" standalone="no"?>
<svg width="240px" height="90px" viewBox="0 0 240 90" version="1.1" xmlns="http://www.w3.org/2000/svg" xmlns:xlink="http://www.w3.org/1999/xlink" xmlns:sketch="http://www.bohemiancoding.com/sketch/ns">
    <title>swift-migrations</title>
    <description>Created with Sketch (http://www.bohemiancoding.com/sketch)</description>
    <defs></defs>
    <g id="Page 1" stroke="none" stroke-width="1" fill="none" fill-rule="evenodd" sketch:type="MSPage">
        <g id="swift-migrations" sketch:type="MSArtboardGroup" fill="#D3E3EC">
            <g id="logoish" sketch:type="MSLayerGroup">
                <path d="M45.5046188,51.9396651 C45.5046188,51.9396651 45.5046188,53.1616802 45.2594719,53.7285197 C45.0143251,54.2953593 44.7400393,53.9880437 44.7400393,53.5019014 C44.7400392,53.0157592 43.7434044,52.834582 42.758594,53.1616802 C42.0884869,53.3842518 40.9818654,53.684542 39.8483086,53.9361744 C40.2469835,55.2055261 40.8687854,56.9235726 41.6394434,58.1909205 C43.018623,60.4589825 42.9925022,60.435076 42.2231496,62.5011807 C41.4537971,64.5672855 35.1731409,78.4531867 32.1170782,84.4143547 C29.0610157,90.375523 25.3299603,91.3018788 25.8537783,84.2314175 C26.3775961,77.1609562 29.1833507,67.7696019 29.1833507,67.7696019 C29.1833507,67.7696019 29.9108629,66.5603904 29.2434167,65.5168198 C28.5759705,64.4732493 25.7660936,61.6676318 24.9196654,59.5726475 C24.4600238,58.4349939 24.2259581,57.3874508 24.1080196,56.667633 C23.3532626,56.7970296 22.8978983,56.8751255 22.8978983,56.8751255 C22.8978983,56.8751255 9.98809775,58.7895313 5.89323739,59.2082949 C1.79837711,59.6270586 1.56568811,58.4124867 1.56568811,58.4124867 L0,56.4651755 C0,56.4651755 0.110643368,55.0478812 0.754655336,53.2120181 C1.39866736,51.376155 5.24563585,51.5604663 5.24563585,51.5604663 C5.24563585,51.5604663 13.7537656,51.2143655 20.9300513,50.7031062 C20.7701513,50.0187934 20.5924449,48.9894153 20.5924447,47.7942113 C20.5924444,45.6215099 21.9136923,43.0034076 22.1387209,41.8325775 C22.3637495,40.6617473 21.4638469,38.9502883 21.4638469,38.9502883 C21.4638469,38.9502883 14.2727056,31.4812276 12.3903749,27.6542037 C10.5080443,23.8271798 16.2924358,27.2891326 18.728831,28.6745548 C21.1652263,30.0599771 33.9159428,37.9800967 35.4052174,38.964431 C36.894492,39.9487653 36.8330237,40.4844921 36.4093398,43.0034073 C35.985656,45.5223225 36.4546428,47.4038722 36.9306492,47.7942116 C37.1265898,47.9548888 37.8866174,48.1613848 38.713136,48.3487529 C40.5506972,48.150347 41.950522,48.0919441 42.5995969,48.2894849 C44.9357767,49.0004827 45.5046188,51.9396651 45.5046188,51.9396651 Z M45.5046188,51.9396651" id="bird" sketch:type="MSShapeGroup"></path>
                <path d="M104.398106,33.8041055 C104.398106,33.8041055 104.398106,35.0493895 104.165691,35.6270225 C103.933277,36.2046555 103.673237,35.8914881 103.673237,35.3960891 C103.673237,34.90069 102.728365,34.7160629 101.794703,35.0493895 C101.080105,35.3045084 99.8419087,35.6598298 98.6327241,35.9320799 C99.0382327,37.2710648 99.794788,39.515102 100.731313,41.1093391 C102.148609,43.5219874 102.122431,43.4961525 101.448088,45.6232655 C100.773745,47.7503785 95.1646636,62.0075628 92.4076136,68.1155634 C89.650564,74.2235642 86.0628807,75.0590889 86.3243305,67.7062401 C86.5857802,60.3533913 88.9802483,50.6606 88.9802483,50.6606 C88.9802483,50.6606 89.6439042,49.4253591 88.9598984,48.3141152 C88.2758925,47.2028712 85.4517164,44.1798729 84.5573579,41.9662569 C84.0271028,40.653829 83.7614881,39.4627685 83.6331028,38.7105015 C83.2089189,38.7886766 82.965526,38.8335441 82.965526,38.8335441 C82.965526,38.8335441 70.7262306,40.784403 66.8440478,41.2111405 C62.9618651,41.6378781 62.7412614,40.400179 62.7412614,40.400179 L61.2568915,38.4157882 C61.2568915,38.4157882 61.3617883,36.9715065 61.9723518,35.1006859 C62.5829153,33.2298653 66.2300812,33.4176862 66.2300812,33.4176862 C66.2300812,33.4176862 74.3516001,33.062578 81.1696623,32.538648 C81.0182114,31.8144332 80.8481721,30.717298 80.8481719,29.4417191 C80.8481716,27.1419651 82.0917199,24.3707646 82.303515,23.1314681 C82.5153101,21.8921716 81.6683288,20.0806319 81.6683288,20.0806319 C81.6683288,20.0806319 74.9000825,12.1748045 73.1284475,8.12398867 C71.3568126,4.07317272 76.8010369,7.73756938 79.0941532,9.20400664 C81.3872694,10.6704439 93.3881447,19.0537067 94.7898384,20.0956016 C96.1915321,21.1374967 96.1336786,21.704551 95.7349106,24.3707643 C95.3361427,27.0369775 95.7775495,29.0285542 96.225563,29.4417194 C96.4365379,29.6362839 97.3423462,29.8943204 98.2417916,30.1129032 C99.844702,29.9368969 101.0623,29.8941425 101.643964,30.0844206 C103.858808,30.8089568 104.398106,33.8041055 104.398106,33.8041055 Z M104.398106,33.8041055" id="bird" sketch:type="MSShapeGroup" transform="translate(86.155645, 39.818221) rotate(-359.000000) translate(-86.155645, -39.818221) "></path>
                <path d="M165.251991,28.6291508 C165.251991,28.6291508 165.251991,29.7694138 165.019577,30.2983322 C164.787162,30.8272505 164.527122,30.5404941 164.527122,30.0868745 C164.527122,29.6332549 163.58225,29.4641984 162.648589,29.7694139 C162.032346,29.9708645 161.026721,30.2405482 159.986108,30.4708417 C160.363099,31.7161342 161.011056,33.5966532 161.830007,34.9491306 C163.159858,37.1453458 163.134747,37.1221508 162.406077,39.1148004 C161.677408,41.10745 155.717087,54.4952862 152.813751,60.2412148 C149.910414,65.9871435 146.340716,66.8671829 146.814451,60.0397591 C147.288187,53.2123352 149.938238,44.1521348 149.938238,44.1521348 C149.938238,44.1521348 150.630222,42.9870095 149.986862,41.9763669 C149.343502,40.9657243 146.641299,38.2446198 145.822366,36.2176891 C145.290837,34.9021091 145.068446,33.7121436 144.977816,33.0389418 C144.255607,33.1608041 143.819412,33.2344319 143.819412,33.2344319 C143.819412,33.2344319 131.580116,35.0207651 127.697933,35.4115137 C123.815751,35.8022624 123.595147,34.6689446 123.595147,34.6689446 L122.110777,32.8519074 C122.110777,32.8519074 122.215674,31.5294291 122.826237,29.8163842 C123.436801,28.1033392 127.083967,28.2753202 127.083967,28.2753202 C127.083967,28.2753202 135.205486,27.95016 142.023548,27.4704157 C141.872097,26.8072775 141.702058,25.8026692 141.702058,24.6346662 C141.702057,22.5288619 142.945606,19.9913706 143.157401,18.8565901 C143.369196,17.7218096 142.522214,16.0630461 142.522214,16.0630461 C142.522214,16.0630461 135.753968,8.82395659 133.982333,5.1147662 C132.210698,1.40557573 137.654923,4.76093557 139.948039,6.10370088 C142.241155,7.44646618 154.24203,15.1227266 155.643724,16.0767534 C157.045418,17.0307803 156.987564,17.550012 156.588796,19.9913703 C156.190028,22.4327285 156.631435,24.2563456 157.079449,24.6346665 C157.290424,24.8128224 158.196232,25.0490974 159.095677,25.249246 C160.698588,25.0880832 161.916186,25.0489345 162.49785,25.2231655 C164.712694,25.8865979 165.251991,28.6291508 165.251991,28.6291508 Z M165.251991,28.6291508" id="bird" sketch:type="MSShapeGroup"></path>
                <path d="M226.045719,32.6056273 C226.045719,32.6056273 226.045719,33.8509114 225.813305,34.4285444 C225.58089,35.0061774 225.32085,34.69301 225.32085,34.1976109 C225.32085,33.7022119 224.375978,33.5175848 223.442316,33.8509114 C222.727718,34.1060302 221.489522,34.4613517 220.280337,34.7336018 C220.685846,36.0725866 221.442401,38.3166238 222.378926,39.910861 C223.796222,42.3235093 223.770044,42.2976744 223.095701,44.4247874 C222.421358,46.5519004 216.812277,60.8090847 214.055227,66.9170853 C211.298177,73.0250861 207.710494,73.8606108 207.971944,66.507762 C208.233394,59.1549132 210.627862,49.4621219 210.627862,49.4621219 C210.627862,49.4621219 211.291518,48.226881 210.607512,47.1156371 C209.923506,46.0043931 207.09933,42.9813948 206.204971,40.7677788 C205.674716,39.4553509 205.409101,38.2642904 205.280716,37.5120234 C204.856532,37.5901985 204.613139,37.635066 204.613139,37.635066 C204.613139,37.635066 192.373844,39.5859249 188.491661,40.0126624 C184.609478,40.4393999 184.388875,39.2017009 184.388875,39.2017009 L182.904505,37.21731 C182.904505,37.21731 183.009402,35.7730284 183.619965,33.9022078 C184.230529,32.0313872 187.877694,32.219208 187.877694,32.219208 C187.877694,32.219208 195.999213,31.8640999 202.817276,31.3401699 C202.665825,30.615955 202.495785,29.5188199 202.495785,28.2432409 C202.495785,25.9434869 203.739333,23.1722865 203.951128,21.93299 C204.162923,20.6936934 203.315942,18.8821538 203.315942,18.8821538 C203.315942,18.8821538 196.547696,10.9763264 194.776061,6.92551055 C193.004426,2.8746946 198.44865,6.53909126 200.741767,8.00552852 C203.034883,9.47196578 215.035758,17.8552285 216.437452,18.8971235 C217.839145,19.9390186 217.781292,20.5060729 217.382524,23.1722861 C216.983756,25.8384994 217.425163,27.8300761 217.873176,28.2432413 C218.084151,28.4378058 218.98996,28.6958423 219.889405,28.9144251 C221.492315,28.7384188 222.709914,28.6956643 223.291577,28.8859425 C225.506421,29.6104786 226.045719,32.6056273 226.045719,32.6056273 Z M226.045719,32.6056273" id="bird" sketch:type="MSShapeGroup" transform="translate(207.803259, 38.619743) rotate(-349.000000) translate(-207.803259, -38.619743) "></path>
            </g>
        </g>
    </g>
</svg>